<svg width="39" height="43" viewBox="0 0 39 43" fill="none" xmlns="http://www.w3.org/2000/svg">
<path d="M32.5724 22.8661C32.5964 21.2184 33.0844 19.603 33.9911 18.1699C34.8978 16.7368 36.1938 15.5327 37.7585 14.6695C36.7644 13.3957 35.453 12.3474 33.9284 11.6077C32.4038 10.868 30.708 10.4573 28.9756 10.4082C25.2775 10.0607 21.6939 12.3927 19.8096 12.3927C17.8901 12.3927 14.9889 10.4418 11.8675 10.501C9.84746 10.5595 7.87871 11.0865 6.15316 12.0305C4.42761 12.9745 3.00412 14.3035 2.02141 15.8878C-2.23578 22.4988 0.940607 32.2159 5.0173 37.5612C7.05785 40.1776 9.44178 43.1001 12.5631 42.9974C15.6163 42.8828 16.7565 41.2498 20.4436 41.2498C24.0932 41.2498 25.163 42.9974 28.346 42.9322C31.6237 42.8828 33.6862 40.302 35.6541 37.66C37.1212 35.7957 38.2504 33.7351 39 31.5544C37.096 30.8324 35.4711 29.6234 34.328 28.0783C33.185 26.5333 32.5744 24.7205 32.5724 22.8661ZM26.5586 6.89143C28.3451 4.96824 29.2256 2.49611 29.013 0C26.2833 0.257049 23.7619 1.42744 21.9514 3.27787C21.0664 4.18119 20.3885 5.23207 19.9565 6.37048C19.5244 7.5089 19.3466 8.71252 19.4332 9.9126C20.7983 9.92522 22.1487 9.6599 23.383 9.13659C24.6172 8.61328 25.703 7.84563 26.5586 6.89143Z" fill="black"/>
</svg>
