<svg width="16" height="16" viewBox="0 0 16 16" fill="none" xmlns="http://www.w3.org/2000/svg">
<g clip-path="url(#clip0_9381_829)">
<path d="M13.637 2.36312L15.313 2.69812C15.403 2.71612 15.477 2.78212 15.503 2.87112C15.5161 2.91435 15.5173 2.96034 15.5064 3.00418C15.4955 3.04803 15.4729 3.08809 15.441 3.12012L14.068 4.49412C13.9037 4.65809 13.6811 4.75016 13.449 4.75012H12.31L9.45 7.61112C9.50456 7.81714 9.5146 8.03242 9.47943 8.24263C9.44427 8.45283 9.36472 8.65313 9.24607 8.83018C9.12743 9.00723 8.97242 9.15696 8.79137 9.2694C8.61032 9.38184 8.40739 9.45441 8.19609 9.48227C7.98479 9.51013 7.76999 9.49265 7.56598 9.43098C7.36197 9.36932 7.17344 9.26489 7.01296 9.12465C6.85248 8.98441 6.72372 8.81158 6.63527 8.61767C6.54682 8.42377 6.50071 8.21324 6.5 8.00012C6.50015 7.77001 6.55321 7.54302 6.65506 7.33668C6.75692 7.13034 6.90486 6.95019 7.08744 6.81013C7.27002 6.67008 7.48236 6.57388 7.70804 6.52897C7.93372 6.48406 8.16671 6.49164 8.389 6.55112L11.25 3.68912V2.55212C11.25 2.32012 11.342 2.09712 11.506 1.93312L12.88 0.559119C12.912 0.527248 12.9521 0.504652 12.9959 0.493735C13.0398 0.482818 13.0858 0.483988 13.129 0.497119C13.218 0.523119 13.284 0.597119 13.302 0.687119L13.637 2.36312Z" fill="white"/>
<path d="M2.00068 7.9998C2.0017 8.85776 2.18672 9.70552 2.54324 10.4859C2.89977 11.2663 3.41951 11.9611 4.0674 12.5236C4.7153 13.086 5.47628 13.5029 6.29901 13.7463C7.12175 13.9896 7.9871 14.0536 8.83669 13.9341C9.68628 13.8145 10.5004 13.5142 11.224 13.0533C11.9476 12.5924 12.564 11.9816 13.0315 11.2622C13.4991 10.5428 13.8069 9.73155 13.9342 8.88309C14.0616 8.03463 14.0054 7.16873 13.7697 6.3438C13.7366 6.24742 13.7234 6.14532 13.7311 6.0437C13.7387 5.94208 13.7669 5.84308 13.814 5.75271C13.8611 5.66235 13.9261 5.58252 14.005 5.51808C14.084 5.45363 14.1752 5.40593 14.2732 5.37788C14.3711 5.34982 14.4738 5.34199 14.5749 5.35487C14.676 5.36775 14.7734 5.40107 14.8612 5.4528C14.949 5.50452 15.0253 5.57358 15.0856 5.65575C15.1458 5.73793 15.1887 5.83151 15.2117 5.9308C15.6682 7.52833 15.5815 9.23221 14.9651 10.7751C14.3488 12.3181 13.2377 13.6127 11.8061 14.456C10.3745 15.2993 8.70352 15.6435 7.05523 15.4346C5.40693 15.2257 3.87462 14.4755 2.69868 13.3018C1.52402 12.1262 0.773053 10.5937 0.563681 8.94502C0.35431 7.29634 0.69839 5.62481 1.5419 4.19287C2.38541 2.76093 3.68058 1.64966 5.22407 1.03354C6.76756 0.417419 8.47196 0.331333 10.0697 0.7888C10.2599 0.844412 10.4204 0.973068 10.5161 1.14665C10.6118 1.32024 10.6348 1.52463 10.5803 1.71518C10.5257 1.90572 10.3979 2.06691 10.2248 2.16353C10.0518 2.26015 9.84751 2.28433 9.65668 2.2308C8.76326 1.97447 7.82251 1.92916 6.90859 2.09847C5.99468 2.26777 5.13258 2.64705 4.39027 3.2064C3.64796 3.76575 3.04572 4.48989 2.63104 5.32172C2.21636 6.15355 2.00056 7.07034 2.00068 7.9998Z" fill="white"/>
<path d="M5.00048 8.00023C5.00054 8.54682 5.14983 9.08302 5.43224 9.551C5.71466 10.019 6.11948 10.401 6.60305 10.6558C7.08662 10.9106 7.63057 11.0285 8.17625 10.9969C8.72192 10.9652 9.2486 10.7852 9.69948 10.4762C10.1503 10.1665 10.5078 9.73936 10.7334 9.24109C10.959 8.74282 11.0441 8.19236 10.9795 7.64923C10.962 7.51743 10.98 7.38335 11.0315 7.26081C11.0831 7.13826 11.1664 7.03167 11.2728 6.95201C11.3793 6.87235 11.505 6.82251 11.6371 6.80761C11.7693 6.7927 11.903 6.81329 12.0245 6.86723C12.146 6.92047 12.2512 7.00498 12.3293 7.11214C12.4075 7.21931 12.4559 7.34528 12.4695 7.47723C12.5781 8.40533 12.3952 9.34424 11.946 10.1636C11.4968 10.983 10.8037 11.6423 9.96282 12.0499C9.12196 12.4574 8.17507 12.5932 7.25357 12.4382C6.33208 12.2832 5.48169 11.8451 4.82044 11.1849C4.15919 10.5246 3.71988 9.67492 3.56348 8.75366C3.40708 7.83241 3.54136 6.88531 3.94766 6.04383C4.35397 5.20235 5.01216 4.50822 5.83087 4.05779C6.64959 3.60737 7.58821 3.42298 8.51648 3.53023C8.61587 3.53945 8.71243 3.56842 8.80048 3.61544C8.88853 3.66247 8.96631 3.72659 9.02926 3.80407C9.09221 3.88154 9.13906 3.9708 9.16707 4.06661C9.19507 4.16242 9.20367 4.26286 9.19235 4.36204C9.18104 4.46122 9.15004 4.55714 9.10117 4.64418C9.0523 4.73123 8.98655 4.80764 8.90777 4.86894C8.82899 4.93024 8.73876 4.9752 8.64238 5.00118C8.54599 5.02716 8.4454 5.03363 8.34648 5.02023C7.92614 4.97142 7.50022 5.0121 7.09671 5.13958C6.69321 5.26706 6.32123 5.47846 6.00523 5.7599C5.68922 6.04135 5.43633 6.38646 5.26316 6.77257C5.09 7.15868 5.00048 7.57706 5.00048 8.00023Z" fill="white"/>
</g>
<defs>
<clipPath id="clip0_9381_829">
<rect width="16" height="16" fill="white"/>
</clipPath>
</defs>
</svg>
