<svg width="17" height="16" viewBox="0 0 17 16" fill="none" xmlns="http://www.w3.org/2000/svg">
<path d="M15.5833 10C15.5833 12.58 13.3663 14.6667 10.625 14.6667L11.3688 13.5" stroke="white" stroke-width="1.5" stroke-linecap="round" stroke-linejoin="round"/>
<path d="M1.41797 6.00016C1.41797 3.42016 3.63505 1.3335 6.3763 1.3335L5.63255 2.50016" stroke="white" stroke-width="1.5" stroke-linecap="round" stroke-linejoin="round"/>
<path d="M9.70312 2.9668L12.5223 4.50012L15.3131 2.97347" stroke="white" stroke-width="1.5" stroke-linecap="round" stroke-linejoin="round"/>
<path d="M12.5234 7.21366V4.49365" stroke="white" stroke-width="1.5" stroke-linecap="round" stroke-linejoin="round"/>
<path d="M11.8583 1.4735L10.1583 2.36013C9.77577 2.56013 9.45703 3.0668 9.45703 3.48013V5.17349C9.45703 5.58682 9.76869 6.09348 10.1583 6.29348L11.8583 7.18016C12.2195 7.37349 12.8145 7.37349 13.1829 7.18016L14.8829 6.29348C15.2654 6.09348 15.5841 5.58682 15.5841 5.17349V3.48013C15.5841 3.0668 15.2724 2.56013 14.8829 2.36013L13.1829 1.4735C12.8216 1.28683 12.2266 1.28683 11.8583 1.4735Z" stroke="white" stroke-width="1.5" stroke-linecap="round" stroke-linejoin="round"/>
<path d="M1.66406 10.3003L4.47615 11.8336L7.27406 10.307" stroke="white" stroke-width="1.5" stroke-linecap="round" stroke-linejoin="round"/>
<path d="M4.47656 14.5472V11.8271" stroke="white" stroke-width="1.5" stroke-linecap="round" stroke-linejoin="round"/>
<path d="M7.54505 10.8201C7.54505 10.4068 7.23339 9.90014 6.8438 9.70014L5.1438 8.81346C4.78255 8.62012 4.18755 8.62012 3.81922 8.81346L2.11922 9.70014C1.73672 9.90014 1.41797 10.4068 1.41797 10.8201V12.5135C1.41797 12.9268 1.72964 13.4335 2.11922 13.6335L3.81922 14.5202C4.18047 14.7135 4.77546 14.7135 5.1438 14.5202L6.8438 13.6335" stroke="white" stroke-width="1.5" stroke-linecap="round" stroke-linejoin="round"/>
</svg>
